<svg width="883" height="237" viewBox="0 0 883 237" xmlns="http://www.w3.org/2000/svg">
  <rect x="663" y="204" width="16" height="16" rx="4" fill="#2B323B" />
  <rect x="578" y="0" width="16" height="16" rx="4" fill="#2B323B" />
  <rect x="374" y="170" width="16" height="16" rx="4" fill="#2B323B" />
  <rect x="629" y="0" width="16" height="16" rx="4" fill="#2B323B" />
  <rect x="510" y="68" width="16" height="16" rx="4" fill="#2B323B" />
  <rect x="51" y="153" width="16" height="16" rx="4" fill="#2B323B" />
  <rect x="153" y="187" width="16" height="16" rx="4" fill="#2B323B" />
  <rect x="748" y="34" width="16" height="16" rx="4" fill="#2B323B" />
  <rect x="102" y="0" width="16" height="16" rx="4" fill="#2B323B" />
  <rect x="238" y="153" width="16" height="16" rx="4" fill="#2B323B" />
  <rect x="799" y="153" width="16" height="16" rx="4" fill="#2B323B" />
  <rect x="782" y="0" width="16" height="16" rx="4" fill="#2B323B" />
  <rect x="459" y="34" width="16" height="16" rx="4" fill="#2B323B" />
  <rect x="255" y="170" width="16" height="16" rx="4" fill="#2B323B" />
  <rect x="629" y="136" width="16" height="16" rx="4" fill="#2B323B" />
  <rect x="136" y="153" width="16" height="16" rx="4" fill="#2B323B" />
  <rect x="51" y="102" width="16" height="16" rx="4" fill="#2B323B" />
  <rect x="0" y="17" width="16" height="16" rx="4" fill="#2B323B" />
  <rect x="374" y="136" width="16" height="16" rx="4" fill="#2B323B" />
  <rect x="646" y="170" width="16" height="16" rx="4" fill="#2B323B" />
  <rect x="323" y="0" width="16" height="16" rx="4" fill="#2B323B" />
  <rect x="170" y="17" width="16" height="16" rx="4" fill="#2B323B" />
  <rect x="765" y="0" width="16" height="16" rx="4" fill="#2B323B" />
  <rect x="374" y="119" width="16" height="16" rx="4" fill="#2B323B" />
  <rect x="136" y="34" width="16" height="16" rx="4" fill="#2B323B" />
  <rect x="51" y="85" width="16" height="16" rx="4" fill="#2B323B" />
  <rect x="391" y="204" width="16" height="16" rx="4" fill="#2B323B" />
  <rect x="663" y="68" width="16" height="16" rx="4" fill="#2B323B" />
  <rect x="0" y="221" width="16" height="16" rx="4" fill="#2B323B" />
  <rect x="102" y="51" width="16" height="16" rx="4" fill="#2B323B" />
  <rect x="289" y="17" width="16" height="16" rx="4" fill="#2B323B" />
  <rect x="221" y="136" width="16" height="16" rx="4" fill="#2B323B" />
  <rect x="867" y="136" width="16" height="16" rx="4" fill="#2B323B" />
  <rect x="323" y="153" width="16" height="16" rx="4" fill="#2B323B" />
  <rect x="442" y="34" width="16" height="16" rx="4" fill="#2B323B" />
  <rect x="306" y="221" width="16" height="16" rx="4" fill="#2B323B" />
  <rect x="646" y="119" width="16" height="16" rx="4" fill="#2B323B" />
  <rect x="765" y="204" width="16" height="16" rx="4" fill="#2B323B" />
  <rect x="238" y="187" width="16" height="16" rx="4" fill="#2B323B" />
  <rect x="255" y="187" width="16" height="16" rx="4" fill="#2B323B" />
  <rect x="459" y="153" width="16" height="16" rx="4" fill="#2B323B" />
  <rect x="816" y="119" width="16" height="16" rx="4" fill="#2B323B" />
  <rect x="272" y="85" width="16" height="16" rx="4" fill="#2B323B" />
  <rect x="272" y="221" width="16" height="16" rx="4" fill="#2B323B" />
  <rect x="697" y="136" width="16" height="16" rx="4" fill="#2B323B" />
  <rect x="527" y="136" width="16" height="16" rx="4" fill="#2B323B" />
  <rect x="187" y="0" width="16" height="16" rx="4" fill="#2B323B" />
  <rect x="102" y="204" width="16" height="16" rx="4" fill="#2B323B" />
  <rect x="289" y="68" width="16" height="16" rx="4" fill="#2B323B" />
  <rect x="799" y="187" width="16" height="16" rx="4" fill="#2B323B" />
  <rect x="850" y="68" width="16" height="16" rx="4" fill="#2B323B" />
  <rect x="561" y="153" width="16" height="16" rx="4" fill="#2B323B" />
  <rect x="0" y="102" width="16" height="16" rx="4" fill="#2B323B" />
  <rect x="85" y="136" width="16" height="16" rx="4" fill="#2B323B" />
  <rect x="255" y="51" width="16" height="16" rx="4" fill="#2B323B" />
  <rect x="68" y="119" width="16" height="16" rx="4" fill="#2B323B" />
  <rect x="731" y="34" width="16" height="16" rx="4" fill="#2B323B" />
  <rect x="85" y="221" width="16" height="16" rx="4" fill="#2B323B" />
  <rect x="680" y="68" width="16" height="16" rx="4" fill="#2B323B" />
  <rect x="85" y="17" width="16" height="16" rx="4" fill="#2B323B" />
  <rect x="561" y="68" width="16" height="16" rx="4" fill="#2B323B" />
  <rect x="102" y="136" width="16" height="16" rx="4" fill="#2B323B" />
  <rect x="459" y="0" width="16" height="16" rx="4" fill="#2B323B" />
  <rect x="102" y="68" width="16" height="16" rx="4" fill="#2B323B" />
  <rect x="306" y="170" width="16" height="16" rx="4" fill="#2B323B" />
  <rect x="680" y="204" width="16" height="16" rx="4" fill="#2B323B" />
  <rect x="850" y="85" width="16" height="16" rx="4" fill="#2B323B" />
  <rect x="323" y="17" width="16" height="16" rx="4" fill="#2B323B" />
  <rect x="51" y="187" width="16" height="16" rx="4" fill="#2B323B" />
  <rect x="612" y="119" width="16" height="16" rx="4" fill="#2B323B" />
  <rect x="663" y="102" width="16" height="16" rx="4" fill="#2B323B" />
  <rect x="612" y="102" width="16" height="16" rx="4" fill="#2B323B" />
  <rect x="510" y="136" width="16" height="16" rx="4" fill="#2B323B" />
  <rect x="425" y="221" width="16" height="16" rx="4" fill="#2B323B" />
  <rect x="867" y="187" width="16" height="16" rx="4" fill="#2B323B" />
  <rect x="306" y="51" width="16" height="16" rx="4" fill="#2B323B" />
  <rect x="408" y="170" width="16" height="16" rx="4" fill="#2B323B" />
  <rect x="646" y="136" width="16" height="16" rx="4" fill="#2B323B" />
  <rect x="493" y="85" width="16" height="16" rx="4" fill="#2B323B" />
  <rect x="748" y="136" width="16" height="16" rx="4" fill="#2B323B" />
  <rect x="527" y="85" width="16" height="16" rx="4" fill="#2B323B" />
  <rect x="68" y="68" width="16" height="16" rx="4" fill="#2B323B" />
  <rect x="442" y="170" width="16" height="16" rx="4" fill="#2B323B" />
  <rect x="442" y="221" width="16" height="16" rx="4" fill="#2B323B" />
  <rect x="238" y="170" width="16" height="16" rx="4" fill="#2B323B" />
  <rect x="102" y="102" width="16" height="16" rx="4" fill="#2B323B" />
  <rect x="833" y="0" width="16" height="16" rx="4" fill="#2B323B" />
  <rect x="612" y="204" width="16" height="16" rx="4" fill="#2B323B" />
  <rect x="476" y="221" width="16" height="16" rx="4" fill="#2B323B" />
  <rect x="357" y="204" width="16" height="16" rx="4" fill="#2B323B" />
  <rect x="765" y="68" width="16" height="16" rx="4" fill="#2B323B" />
  <rect x="646" y="34" width="16" height="16" rx="4" fill="#2B323B" />
  <rect x="510" y="153" width="16" height="16" rx="4" fill="#2B323B" />
  <rect x="238" y="102" width="16" height="16" rx="4" fill="#2B323B" />
  <rect x="374" y="153" width="16" height="16" rx="4" fill="#2B323B" />
  <rect x="697" y="170" width="16" height="16" rx="4" fill="#2B323B" />
  <rect x="578" y="68" width="16" height="16" rx="4" fill="#2B323B" />
  <rect x="765" y="51" width="16" height="16" rx="4" fill="#2B323B" />
  <rect x="595" y="85" width="16" height="16" rx="4" fill="#2B323B" />
  <rect x="799" y="51" width="16" height="16" rx="4" fill="#2B323B" />
  <rect x="204" y="170" width="16" height="16" rx="4" fill="#2B323B" />
  <rect x="748" y="187" width="16" height="16" rx="4" fill="#2B323B" />
  <rect x="527" y="17" width="16" height="16" rx="4" fill="#2B323B" />
  <rect x="510" y="187" width="16" height="16" rx="4" fill="#2B323B" />
  <rect x="357" y="34" width="16" height="16" rx="4" fill="#2B323B" />
  <rect x="153" y="34" width="16" height="16" rx="4" fill="#2B323B" />
  <rect x="731" y="221" width="16" height="16" rx="4" fill="#2B323B" />
  <rect x="374" y="17" width="16" height="16" rx="4" fill="#2B323B" />
  <rect x="102" y="153" width="16" height="16" rx="4" fill="#2B323B" />
  <rect x="527" y="187" width="16" height="16" rx="4" fill="#2B323B" />
  <rect x="170" y="85" width="16" height="16" rx="4" fill="#2B323B" />
  <rect x="578" y="102" width="16" height="16" rx="4" fill="#2B323B" />
  <rect x="544" y="119" width="16" height="16" rx="4" fill="#2B323B" />
  <rect x="697" y="68" width="16" height="16" rx="4" fill="#2B323B" />
  <rect x="544" y="187" width="16" height="16" rx="4" fill="#2B323B" />
  <rect x="51" y="68" width="16" height="16" rx="4" fill="#2B323B" />
  <rect x="357" y="119" width="16" height="16" rx="4" fill="#2B323B" />
  <rect x="306" y="153" width="16" height="16" rx="4" fill="#2B323B" />
  <rect x="612" y="187" width="16" height="16" rx="4" fill="#2B323B" />
  <rect x="561" y="34" width="16" height="16" rx="4" fill="#2B323B" />
  <rect x="425" y="204" width="16" height="16" rx="4" fill="#2B323B" />
  <rect x="255" y="136" width="16" height="16" rx="4" fill="#2B323B" />
  <rect x="323" y="221" width="16" height="16" rx="4" fill="#2B323B" />
  <rect x="187" y="153" width="16" height="16" rx="4" fill="#2B323B" />
  <rect x="714" y="85" width="16" height="16" rx="4" fill="#2B323B" />
  <rect x="272" y="68" width="16" height="16" rx="4" fill="#2B323B" />
  <rect x="272" y="51" width="16" height="16" rx="4" fill="#2B323B" />
  <rect x="425" y="34" width="16" height="16" rx="4" fill="#2B323B" />
  <rect x="561" y="119" width="16" height="16" rx="4" fill="#2B323B" />
  <rect x="850" y="51" width="16" height="16" rx="4" fill="#2B323B" />
  <rect x="561" y="102" width="16" height="16" rx="4" fill="#2B323B" />
  <rect x="221" y="221" width="16" height="16" rx="4" fill="#2B323B" />
  <rect x="476" y="51" width="16" height="16" rx="4" fill="#2B323B" />
  <rect x="510" y="221" width="16" height="16" rx="4" fill="#2B323B" />
  <rect x="629" y="221" width="16" height="16" rx="4" fill="#2B323B" />
  <rect x="646" y="0" width="16" height="16" rx="4" fill="#2B323B" />
  <rect x="323" y="170" width="16" height="16" rx="4" fill="#2B323B" />
  <rect x="544" y="0" width="16" height="16" rx="4" fill="#2B323B" />
  <rect x="391" y="221" width="16" height="16" rx="4" fill="#2B323B" />
  <rect x="255" y="204" width="16" height="16" rx="4" fill="#2B323B" />
  <rect x="85" y="153" width="16" height="16" rx="4" fill="#2B323B" />
  <rect x="527" y="34" width="16" height="16" rx="4" fill="#2B323B" />
  <rect x="51" y="170" width="16" height="16" rx="4" fill="#2B323B" />
  <rect x="34" y="136" width="16" height="16" rx="4" fill="#2B323B" />
  <rect x="374" y="34" width="16" height="16" rx="4" fill="#2B323B" />
  <rect x="289" y="187" width="16" height="16" rx="4" fill="#2B323B" />
  <rect x="425" y="136" width="16" height="16" rx="4" fill="#2B323B" />
  <rect x="340" y="204" width="16" height="16" rx="4" fill="#2B323B" />
  <rect x="374" y="221" width="16" height="16" rx="4" fill="#2B323B" />
  <rect x="323" y="102" width="16" height="16" rx="4" fill="#2B323B" />
  <rect x="340" y="170" width="16" height="16" rx="4" fill="#2B323B" />
  <rect x="459" y="51" width="16" height="16" rx="4" fill="#2B323B" />
  <rect x="68" y="17" width="16" height="16" rx="4" fill="#2B323B" />
  <rect x="544" y="153" width="16" height="16" rx="4" fill="#2B323B" />
  <rect x="187" y="187" width="16" height="16" rx="4" fill="#2B323B" />
  <rect x="391" y="153" width="16" height="16" rx="4" fill="#2B323B" />
  <rect x="323" y="119" width="16" height="16" rx="4" fill="#2B323B" />
  <rect x="799" y="85" width="16" height="16" rx="4" fill="#2B323B" />
  <rect x="68" y="187" width="16" height="16" rx="4" fill="#2B323B" />
  <rect x="629" y="204" width="16" height="16" rx="4" fill="#2B323B" />
  <rect x="170" y="153" width="16" height="16" rx="4" fill="#2B323B" />
  <rect x="289" y="34" width="16" height="16" rx="4" fill="#2B323B" />
  <rect x="561" y="136" width="16" height="16" rx="4" fill="#2B323B" />
  <rect x="510" y="119" width="16" height="16" rx="4" fill="#2B323B" />
  <rect x="187" y="136" width="16" height="16" rx="4" fill="#2B323B" />
  <rect x="748" y="51" width="16" height="16" rx="4" fill="#2B323B" />
  <rect x="0" y="85" width="16" height="16" rx="4" fill="#2B323B" />
  <rect x="748" y="17" width="16" height="16" rx="4" fill="#2B323B" />
  <rect x="442" y="136" width="16" height="16" rx="4" fill="#2B323B" />
  <rect x="17" y="34" width="16" height="16" rx="4" fill="#2B323B" />
  <rect x="476" y="136" width="16" height="16" rx="4" fill="#2B323B" />
  <rect x="816" y="68" width="16" height="16" rx="4" fill="#2B323B" />
  <rect x="51" y="119" width="16" height="16" rx="4" fill="#2B323B" />
  <rect x="544" y="170" width="16" height="16" rx="4" fill="#2B323B" />
  <rect x="493" y="17" width="16" height="16" rx="4" fill="#2B323B" />
  <rect x="51" y="204" width="16" height="16" rx="4" fill="#2B323B" />
  <rect x="493" y="119" width="16" height="16" rx="4" fill="#2B323B" />
  <rect x="187" y="51" width="16" height="16" rx="4" fill="#2B323B" />
  <rect x="493" y="68" width="16" height="16" rx="4" fill="#2B323B" />
  <rect x="459" y="68" width="16" height="16" rx="4" fill="#2B323B" />
  <rect x="238" y="136" width="16" height="16" rx="4" fill="#2B323B" />
  <rect x="272" y="204" width="16" height="16" rx="4" fill="#2B323B" />
  <rect x="850" y="153" width="16" height="16" rx="4" fill="#2B323B" />
  <rect x="748" y="170" width="16" height="16" rx="4" fill="#2B323B" />
  <rect x="357" y="136" width="16" height="16" rx="4" fill="#2B323B" />
  <rect x="442" y="68" width="16" height="16" rx="4" fill="#2B323B" />
  <rect x="493" y="187" width="16" height="16" rx="4" fill="#2B323B" />
  <rect x="153" y="119" width="16" height="16" rx="4" fill="#2B323B" />
  <rect x="153" y="51" width="16" height="16" rx="4" fill="#2B323B" />
  <rect x="459" y="170" width="16" height="16" rx="4" fill="#2B323B" />
  <rect x="136" y="0" width="16" height="16" rx="4" fill="#2B323B" />
  <rect x="748" y="153" width="16" height="16" rx="4" fill="#2B323B" />
  <rect x="816" y="221" width="16" height="16" rx="4" fill="#2B323B" />
  <rect x="731" y="119" width="16" height="16" rx="4" fill="#2B323B" />
  <rect x="255" y="0" width="16" height="16" rx="4" fill="#2B323B" />
  <rect x="17" y="170" width="16" height="16" rx="4" fill="#2B323B" />
  <rect x="459" y="221" width="16" height="16" rx="4" fill="#2B323B" />
  <rect x="510" y="85" width="16" height="16" rx="4" fill="#2B323B" />
  <rect x="629" y="102" width="16" height="16" rx="4" fill="#2B323B" />
  <rect x="102" y="17" width="16" height="16" rx="4" fill="#2B323B" />
  <rect x="459" y="136" width="16" height="16" rx="4" fill="#2B323B" />
  <rect x="459" y="102" width="16" height="16" rx="4" fill="#2B323B" />
  <rect x="612" y="170" width="16" height="16" rx="4" fill="#2B323B" />
  <rect x="136" y="68" width="16" height="16" rx="4" fill="#2B323B" />
  <rect x="595" y="119" width="16" height="16" rx="4" fill="#2B323B" />
  <rect x="731" y="0" width="16" height="16" rx="4" fill="#2B323B" />
  <rect x="510" y="17" width="16" height="16" rx="4" fill="#2B323B" />
  <rect x="816" y="85" width="16" height="16" rx="4" fill="#2B323B" />
  <rect x="170" y="119" width="16" height="16" rx="4" fill="#2B323B" />
  <rect x="374" y="102" width="16" height="16" rx="4" fill="#2B323B" />
  <rect x="391" y="85" width="16" height="16" rx="4" fill="#2B323B" />
  <rect x="357" y="51" width="16" height="16" rx="4" fill="#2B323B" />
  <rect x="85" y="0" width="16" height="16" rx="4" fill="#2B323B" />
  <rect x="816" y="102" width="16" height="16" rx="4" fill="#2B323B" />
  <rect x="765" y="221" width="16" height="16" rx="4" fill="#2B323B" />
  <rect x="748" y="119" width="16" height="16" rx="4" fill="#2B323B" />
  <rect x="340" y="153" width="16" height="16" rx="4" fill="#2B323B" />
  <rect x="612" y="0" width="16" height="16" rx="4" fill="#2B323B" />
  <rect x="561" y="204" width="16" height="16" rx="4" fill="#2B323B" />
  <rect x="119" y="34" width="16" height="16" rx="4" fill="#2B323B" />
  <rect x="136" y="102" width="16" height="16" rx="4" fill="#2B323B" />
  <rect x="68" y="34" width="16" height="16" rx="4" fill="#2B323B" />
  <rect x="102" y="221" width="16" height="16" rx="4" fill="#2B323B" />
  <rect x="646" y="17" width="16" height="16" rx="4" fill="#2B323B" />
  <rect x="578" y="204" width="16" height="16" rx="4" fill="#2B323B" />
  <rect x="306" y="85" width="16" height="16" rx="4" fill="#2B323B" />
  <rect x="425" y="85" width="16" height="16" rx="4" fill="#2B323B" />
  <rect x="187" y="85" width="16" height="16" rx="4" fill="#2B323B" />
  <rect x="323" y="136" width="16" height="16" rx="4" fill="#2B323B" />
  <rect x="119" y="0" width="16" height="16" rx="4" fill="#2B323B" />
  <rect x="816" y="170" width="16" height="16" rx="4" fill="#2B323B" />
  <rect x="476" y="85" width="16" height="16" rx="4" fill="#2B323B" />
  <rect x="357" y="221" width="16" height="16" rx="4" fill="#2B323B" />
  <rect x="340" y="17" width="16" height="16" rx="4" fill="#2B323B" />
  <rect x="408" y="119" width="16" height="16" rx="4" fill="#2B323B" />
  <rect x="119" y="51" width="16" height="16" rx="4" fill="#2B323B" />
  <rect x="867" y="153" width="16" height="16" rx="4" fill="#2B323B" />
  <rect x="833" y="119" width="16" height="16" rx="4" fill="#2B323B" />
  <rect x="476" y="119" width="16" height="16" rx="4" fill="#2B323B" />
  <rect x="544" y="221" width="16" height="16" rx="4" fill="#2B323B" />
  <rect x="731" y="102" width="16" height="16" rx="4" fill="#2B323B" />
  <rect x="34" y="153" width="16" height="16" rx="4" fill="#2B323B" />
  <rect x="867" y="204" width="16" height="16" rx="4" fill="#2B323B" />
  <rect x="289" y="170" width="16" height="16" rx="4" fill="#2B323B" />
  <rect x="442" y="0" width="16" height="16" rx="4" fill="#2B323B" />
  <rect x="527" y="51" width="16" height="16" rx="4" fill="#2B323B" />
  <rect x="425" y="119" width="16" height="16" rx="4" fill="#2B323B" />
  <rect x="782" y="136" width="16" height="16" rx="4" fill="#2B323B" />
  <rect x="765" y="170" width="16" height="16" rx="4" fill="#2B323B" />
  <rect x="272" y="34" width="16" height="16" rx="4" fill="#2B323B" />
  <rect x="34" y="17" width="16" height="16" rx="4" fill="#2B323B" />
  <rect x="119" y="221" width="16" height="16" rx="4" fill="#2B323B" />
  <rect x="255" y="221" width="16" height="16" rx="4" fill="#2B323B" />
  <rect x="476" y="204" width="16" height="16" rx="4" fill="#2B323B" />
  <rect x="136" y="85" width="16" height="16" rx="4" fill="#2B323B" />
  <rect x="136" y="204" width="16" height="16" rx="4" fill="#2B323B" />
  <rect x="17" y="136" width="16" height="16" rx="4" fill="#2B323B" />
  <rect x="408" y="85" width="16" height="16" rx="4" fill="#2B323B" />
  <rect x="34" y="170" width="16" height="16" rx="4" fill="#2B323B" />
  <rect x="714" y="0" width="16" height="16" rx="4" fill="#2B323B" />
  <rect x="799" y="170" width="16" height="16" rx="4" fill="#2B323B" />
  <rect x="34" y="102" width="16" height="16" rx="4" fill="#2B323B" />
  <rect x="136" y="17" width="16" height="16" rx="4" fill="#2B323B" />
  <rect x="833" y="68" width="16" height="16" rx="4" fill="#2B323B" />
  <rect x="799" y="204" width="16" height="16" rx="4" fill="#2B323B" />
  <rect x="255" y="85" width="16" height="16" rx="4" fill="#2B323B" />
  <rect x="731" y="85" width="16" height="16" rx="4" fill="#2B323B" />
  <rect x="119" y="85" width="16" height="16" rx="4" fill="#2B323B" />
  <rect x="595" y="0" width="16" height="16" rx="4" fill="#2B323B" />
  <rect x="629" y="51" width="16" height="16" rx="4" fill="#2B323B" />
  <rect x="646" y="153" width="16" height="16" rx="4" fill="#2B323B" />
  <rect x="102" y="85" width="16" height="16" rx="4" fill="#2B323B" />
  <rect x="442" y="204" width="16" height="16" rx="4" fill="#2B323B" />
  <rect x="663" y="119" width="16" height="16" rx="4" fill="#2B323B" />
  <rect x="357" y="85" width="16" height="16" rx="4" fill="#2B323B" />
  <rect x="850" y="136" width="16" height="16" rx="4" fill="#2B323B" />
  <rect x="595" y="17" width="16" height="16" rx="4" fill="#2B323B" />
  <rect x="663" y="17" width="16" height="16" rx="4" fill="#2B323B" />
  <rect x="340" y="68" width="16" height="16" rx="4" fill="#2B323B" />
  <rect x="867" y="85" width="16" height="16" rx="4" fill="#2B323B" />
  <rect x="119" y="136" width="16" height="16" rx="4" fill="#2B323B" />
  <rect x="578" y="170" width="16" height="16" rx="4" fill="#2B323B" />
  <rect x="0" y="0" width="16" height="16" rx="4" fill="#2B323B" />
  <rect x="85" y="102" width="16" height="16" rx="4" fill="#2B323B" />
  <rect x="391" y="34" width="16" height="16" rx="4" fill="#2B323B" />
  <rect x="0" y="68" width="16" height="16" rx="4" fill="#2B323B" />
  <rect x="85" y="34" width="16" height="16" rx="4" fill="#2B323B" />
  <rect x="85" y="187" width="16" height="16" rx="4" fill="#2B323B" />
  <rect x="255" y="34" width="16" height="16" rx="4" fill="#2B323B" />
  <rect x="408" y="0" width="16" height="16" rx="4" fill="#2B323B" />
  <rect x="493" y="221" width="16" height="16" rx="4" fill="#2B323B" />
  <rect x="204" y="187" width="16" height="16" rx="4" fill="#2B323B" />
  <rect x="612" y="51" width="16" height="16" rx="4" fill="#2B323B" />
  <rect x="833" y="17" width="16" height="16" rx="4" fill="#2B323B" />
  <rect x="357" y="0" width="16" height="16" rx="4" fill="#2B323B" />
  <rect x="238" y="51" width="16" height="16" rx="4" fill="#2B323B" />
  <rect x="34" y="68" width="16" height="16" rx="4" fill="#2B323B" />
  <rect x="0" y="34" width="16" height="16" rx="4" fill="#2B323B" />
  <rect x="102" y="34" width="16" height="16" rx="4" fill="#2B323B" />
  <rect x="799" y="119" width="16" height="16" rx="4" fill="#2B323B" />
  <rect x="714" y="204" width="16" height="16" rx="4" fill="#2B323B" />
  <rect x="680" y="221" width="16" height="16" rx="4" fill="#2B323B" />
  <rect x="425" y="0" width="16" height="16" rx="4" fill="#2B323B" />
  <rect x="527" y="204" width="16" height="16" rx="4" fill="#2B323B" />
  <rect x="799" y="102" width="16" height="16" rx="4" fill="#2B323B" />
  <rect x="170" y="102" width="16" height="16" rx="4" fill="#2B323B" />
  <rect x="748" y="102" width="16" height="16" rx="4" fill="#2B323B" />
  <rect x="527" y="68" width="16" height="16" rx="4" fill="#2B323B" />
  <rect x="170" y="136" width="16" height="16" rx="4" fill="#2B323B" />
  <rect x="816" y="34" width="16" height="16" rx="4" fill="#2B323B" />
  <rect x="714" y="221" width="16" height="16" rx="4" fill="#2B323B" />
  <rect x="391" y="170" width="16" height="16" rx="4" fill="#2B323B" />
  <rect x="748" y="204" width="16" height="16" rx="4" fill="#2B323B" />
  <rect x="510" y="0" width="16" height="16" rx="4" fill="#2B323B" />
  <rect x="102" y="119" width="16" height="16" rx="4" fill="#2B323B" />
  <rect x="153" y="204" width="16" height="16" rx="4" fill="#2B323B" />
  <rect x="187" y="170" width="16" height="16" rx="4" fill="#2B323B" />
  <rect x="782" y="34" width="16" height="16" rx="4" fill="#2B323B" />
  <rect x="17" y="102" width="16" height="16" rx="4" fill="#2B323B" />
  <rect x="680" y="187" width="16" height="16" rx="4" fill="#2B323B" />
  <rect x="629" y="170" width="16" height="16" rx="4" fill="#2B323B" />
  <rect x="85" y="204" width="16" height="16" rx="4" fill="#2B323B" />
  <rect x="68" y="170" width="16" height="16" rx="4" fill="#2B323B" />
  <rect x="646" y="187" width="16" height="16" rx="4" fill="#2B323B" />
  <rect x="527" y="221" width="16" height="16" rx="4" fill="#2B323B" />
  <rect x="731" y="187" width="16" height="16" rx="4" fill="#2B323B" />
  <rect x="663" y="0" width="16" height="16" rx="4" fill="#2B323B" />
  <rect x="765" y="85" width="16" height="16" rx="4" fill="#2B323B" />
  <rect x="799" y="136" width="16" height="16" rx="4" fill="#2B323B" />
  <rect x="680" y="153" width="16" height="16" rx="4" fill="#2B323B" />
  <rect x="731" y="68" width="16" height="16" rx="4" fill="#2B323B" />
  <rect x="765" y="102" width="16" height="16" rx="4" fill="#2B323B" />
  <rect x="187" y="34" width="16" height="16" rx="4" fill="#2B323B" />
  <rect x="442" y="17" width="16" height="16" rx="4" fill="#2B323B" />
  <rect x="867" y="17" width="16" height="16" rx="4" fill="#2B323B" />
  <rect x="748" y="68" width="16" height="16" rx="4" fill="#2B323B" />
  <rect x="714" y="119" width="16" height="16" rx="4" fill="#2B323B" />
  <rect x="493" y="51" width="16" height="16" rx="4" fill="#2B323B" />
  <rect x="238" y="34" width="16" height="16" rx="4" fill="#2B323B" />
  <rect x="34" y="204" width="16" height="16" rx="4" fill="#2B323B" />
  <rect x="272" y="136" width="16" height="16" rx="4" fill="#2B323B" />
  <rect x="255" y="68" width="16" height="16" rx="4" fill="#2B323B" />
  <rect x="561" y="170" width="16" height="16" rx="4" fill="#2B323B" />
  <rect x="255" y="153" width="16" height="16" rx="4" fill="#2B323B" />
  <rect x="867" y="0" width="16" height="16" rx="4" fill="#2B323B" />
  <rect x="476" y="0" width="16" height="16" rx="4" fill="#2B323B" />
  <rect x="408" y="17" width="16" height="16" rx="4" fill="#2B323B" />
  <rect x="170" y="0" width="16" height="16" rx="4" fill="#2B323B" />
  <rect x="731" y="204" width="16" height="16" rx="4" fill="#2B323B" />
  <rect x="765" y="187" width="16" height="16" rx="4" fill="#2B323B" />
  <rect x="221" y="102" width="16" height="16" rx="4" fill="#2B323B" />
  <rect x="765" y="136" width="16" height="16" rx="4" fill="#2B323B" />
  <rect x="306" y="102" width="16" height="16" rx="4" fill="#2B323B" />
  <rect x="136" y="187" width="16" height="16" rx="4" fill="#2B323B" />
  <rect x="867" y="119" width="16" height="16" rx="4" fill="#2B323B" />
  <rect x="289" y="221" width="16" height="16" rx="4" fill="#2B323B" />
  <rect x="204" y="221" width="16" height="16" rx="4" fill="#2B323B" />
  <rect x="221" y="51" width="16" height="16" rx="4" fill="#2B323B" />
  <rect x="476" y="68" width="16" height="16" rx="4" fill="#2B323B" />
  <rect x="255" y="119" width="16" height="16" rx="4" fill="#2B323B" />
  <rect x="544" y="34" width="16" height="16" rx="4" fill="#2B323B" />
  <rect x="748" y="85" width="16" height="16" rx="4" fill="#2B323B" />
  <rect x="697" y="34" width="16" height="16" rx="4" fill="#2B323B" />
  <rect x="391" y="17" width="16" height="16" rx="4" fill="#2B323B" />
  <rect x="425" y="51" width="16" height="16" rx="4" fill="#2B323B" />
  <rect x="204" y="68" width="16" height="16" rx="4" fill="#2B323B" />
  <rect x="578" y="34" width="16" height="16" rx="4" fill="#2B323B" />
  <rect x="782" y="68" width="16" height="16" rx="4" fill="#2B323B" />
  <rect x="629" y="68" width="16" height="16" rx="4" fill="#2B323B" />
  <rect x="34" y="34" width="16" height="16" rx="4" fill="#2B323B" />
  <rect x="442" y="119" width="16" height="16" rx="4" fill="#2B323B" />
  <rect x="204" y="34" width="16" height="16" rx="4" fill="#2B323B" />
  <rect x="459" y="119" width="16" height="16" rx="4" fill="#2B323B" />
  <rect x="680" y="102" width="16" height="16" rx="4" fill="#2B323B" />
  <rect x="204" y="119" width="16" height="16" rx="4" fill="#2B323B" />
  <rect x="595" y="51" width="16" height="16" rx="4" fill="#2B323B" />
  <rect x="323" y="187" width="16" height="16" rx="4" fill="#2B323B" />
  <rect x="816" y="153" width="16" height="16" rx="4" fill="#2B323B" />
  <rect x="867" y="51" width="16" height="16" rx="4" fill="#2B323B" />
  <rect x="204" y="102" width="16" height="16" rx="4" fill="#2B323B" />
  <rect x="425" y="187" width="16" height="16" rx="4" fill="#2B323B" />
  <rect x="612" y="85" width="16" height="16" rx="4" fill="#2B323B" />
  <rect x="442" y="85" width="16" height="16" rx="4" fill="#2B323B" />
  <rect x="544" y="51" width="16" height="16" rx="4" fill="#2B323B" />
  <rect x="17" y="187" width="16" height="16" rx="4" fill="#2B323B" />
  <rect x="442" y="153" width="16" height="16" rx="4" fill="#2B323B" />
  <rect x="867" y="68" width="16" height="16" rx="4" fill="#2B323B" />
  <rect x="765" y="34" width="16" height="16" rx="4" fill="#2B323B" />
  <rect x="833" y="153" width="16" height="16" rx="4" fill="#2B323B" />
  <rect x="68" y="153" width="16" height="16" rx="4" fill="#2B323B" />
  <rect x="680" y="0" width="16" height="16" rx="4" fill="#2B323B" />
  <rect x="799" y="221" width="16" height="16" rx="4" fill="#2B323B" />
  <rect x="493" y="204" width="16" height="16" rx="4" fill="#2B323B" />
  <rect x="646" y="102" width="16" height="16" rx="4" fill="#2B323B" />
  <rect x="833" y="204" width="16" height="16" rx="4" fill="#2B323B" />
  <rect x="561" y="51" width="16" height="16" rx="4" fill="#2B323B" />
  <rect x="85" y="119" width="16" height="16" rx="4" fill="#2B323B" />
  <rect x="731" y="153" width="16" height="16" rx="4" fill="#2B323B" />
  <rect x="510" y="102" width="16" height="16" rx="4" fill="#2B323B" />
  <rect x="102" y="170" width="16" height="16" rx="4" fill="#2B323B" />
  <rect x="51" y="17" width="16" height="16" rx="4" fill="#2B323B" />
  <rect x="527" y="102" width="16" height="16" rx="4" fill="#2B323B" />
  <rect x="119" y="17" width="16" height="16" rx="4" fill="#2B323B" />
  <rect x="578" y="136" width="16" height="16" rx="4" fill="#2B323B" />
  <rect x="697" y="119" width="16" height="16" rx="4" fill="#2B323B" />
  <rect x="272" y="187" width="16" height="16" rx="4" fill="#2B323B" />
  <rect x="153" y="136" width="16" height="16" rx="4" fill="#2B323B" />
  <rect x="595" y="170" width="16" height="16" rx="4" fill="#2B323B" />
  <rect x="408" y="136" width="16" height="16" rx="4" fill="#2B323B" />
  <rect x="680" y="119" width="16" height="16" rx="4" fill="#2B323B" />
  <rect x="306" y="119" width="16" height="16" rx="4" fill="#2B323B" />
  <rect x="0" y="51" width="16" height="16" rx="4" fill="#2B323B" />
  <rect x="578" y="153" width="16" height="16" rx="4" fill="#2B323B" />
  <rect x="408" y="51" width="16" height="16" rx="4" fill="#2B323B" />
  <rect x="51" y="51" width="16" height="16" rx="4" fill="#2B323B" />
  <rect x="153" y="102" width="16" height="16" rx="4" fill="#2B323B" />
  <rect x="493" y="34" width="16" height="16" rx="4" fill="#2B323B" />
  <rect x="170" y="51" width="16" height="16" rx="4" fill="#2B323B" />
  <rect x="595" y="68" width="16" height="16" rx="4" fill="#2B323B" />
  <rect x="476" y="153" width="16" height="16" rx="4" fill="#2B323B" />
</svg>