<svg width="856" height="280" viewBox="0 0 856 280" xmlns="http://www.w3.org/2000/svg">
  <rect x="120" y="0" width="16" height="16" rx="4" fill="#2B323B" />
  <rect x="600" y="216" width="16" height="16" rx="4" fill="#2B323B" />
  <rect x="792" y="240" width="16" height="16" rx="4" fill="#2B323B" />
  <rect x="816" y="72" width="16" height="16" rx="4" fill="#2B323B" />
  <rect x="792" y="24" width="16" height="16" rx="4" fill="#2B323B" />
  <rect x="120" y="24" width="16" height="16" rx="4" fill="#2B323B" />
  <rect x="24" y="120" width="16" height="16" rx="4" fill="#2B323B" />
  <rect x="576" y="96" width="16" height="16" rx="4" fill="#2B323B" />
  <rect x="840" y="144" width="16" height="16" rx="4" fill="#2B323B" />
  <rect x="696" y="240" width="16" height="16" rx="4" fill="#2B323B" />
  <rect x="288" y="72" width="16" height="16" rx="4" fill="#2B323B" />
  <rect x="408" y="216" width="16" height="16" rx="4" fill="#2B323B" />
  <rect x="144" y="264" width="16" height="16" rx="4" fill="#2B323B" />
  <rect x="168" y="192" width="16" height="16" rx="4" fill="#2B323B" />
  <rect x="624" y="72" width="16" height="16" rx="4" fill="#2B323B" />
  <rect x="240" y="168" width="16" height="16" rx="4" fill="#2B323B" />
  <rect x="576" y="24" width="16" height="16" rx="4" fill="#2B323B" />
  <rect x="840" y="192" width="16" height="16" rx="4" fill="#2B323B" />
  <rect x="384" y="192" width="16" height="16" rx="4" fill="#2B323B" />
  <rect x="72" y="120" width="16" height="16" rx="4" fill="#2B323B" />
  <rect x="168" y="120" width="16" height="16" rx="4" fill="#2B323B" />
  <rect x="816" y="24" width="16" height="16" rx="4" fill="#2B323B" />
  <rect x="576" y="192" width="16" height="16" rx="4" fill="#2B323B" />
  <rect x="240" y="240" width="16" height="16" rx="4" fill="#2B323B" />
  <rect x="144" y="192" width="16" height="16" rx="4" fill="#2B323B" />
  <rect x="288" y="48" width="16" height="16" rx="4" fill="#2B323B" />
  <rect x="168" y="216" width="16" height="16" rx="4" fill="#2B323B" />
  <rect x="600" y="168" width="16" height="16" rx="4" fill="#2B323B" />
  <rect x="792" y="96" width="16" height="16" rx="4" fill="#2B323B" />
  <rect x="336" y="264" width="16" height="16" rx="4" fill="#2B323B" />
  <rect x="264" y="192" width="16" height="16" rx="4" fill="#2B323B" />
  <rect x="24" y="24" width="16" height="16" rx="4" fill="#2B323B" />
  <rect x="240" y="144" width="16" height="16" rx="4" fill="#2B323B" />
  <rect x="576" y="264" width="16" height="16" rx="4" fill="#2B323B" />
  <rect x="384" y="240" width="16" height="16" rx="4" fill="#2B323B" />
  <rect x="240" y="192" width="16" height="16" rx="4" fill="#2B323B" />
  <rect x="456" y="0" width="16" height="16" rx="4" fill="#2B323B" />
  <rect x="72" y="96" width="16" height="16" rx="4" fill="#2B323B" />
  <rect x="456" y="144" width="16" height="16" rx="4" fill="#2B323B" />
  <rect x="288" y="24" width="16" height="16" rx="4" fill="#2B323B" />
  <rect x="672" y="72" width="16" height="16" rx="4" fill="#2B323B" />
  <rect x="432" y="72" width="16" height="16" rx="4" fill="#2B323B" />
  <rect x="72" y="240" width="16" height="16" rx="4" fill="#2B323B" />
</svg>
